<?xml version="1.0" encoding="UTF-8"?>
<svg version="1.1" xmlns="http://www.w3.org/2000/svg" width="740" height="850">
<path d="M0 0 C244.2 0 488.4 0 740 0 C740 280.5 740 561 740 850 C495.8 850 251.6 850 0 850 C0 569.5 0 289 0 0 Z " fill="#232323" transform="translate(0,0)"/>
<path d="M0 0 C244.2 0 488.4 0 740 0 C740 280.5 740 561 740 850 C495.8 850 251.6 850 0 850 C0 569.5 0 289 0 0 Z M361.8671875 5.984375 C361.07046631 6.41854736 360.27374512 6.85271973 359.45288086 7.30004883 C358.60218018 7.77853271 357.75147949 8.2570166 356.875 8.75 C355.98627197 9.24588623 355.09754395 9.74177246 354.18188477 10.25268555 C328.76377511 24.64280839 306.01153225 42.71692885 284.68359375 62.5625 C282.71105619 64.35414983 280.73560921 66.0256799 278.66015625 67.6875 C277.78230469 68.450625 276.90445312 69.21375 276 70 C276 70.66 276 71.32 276 72 C274.515 72.495 274.515 72.495 273 73 C271.52186685 74.41977048 271.52186685 74.41977048 270.0625 76.25 C267.38326031 79.41996359 264.62929618 82.48138579 261.78100586 85.49780273 C234.9425882 114.02244851 209.85919714 150.78562161 210.77734375 191.34375 C211.54029594 203.87222813 214.97242852 213.81332541 222.51171875 223.87109375 C224 226 224 226 225 229 C224.29230469 229.12632812 223.58460938 229.25265625 222.85546875 229.3828125 C219.91117703 230.0191984 217.16609756 230.91261023 214.3125 231.875 C208.8744927 233.57244836 203.49366929 234.75726065 197.875 235.6875 C196.80245972 235.86611572 196.80245972 235.86611572 195.70825195 236.04833984 C139.14455103 244.93591376 79.45147825 230.64009773 24.89453125 216.734375 C19.6139554 215.39186784 14.32753043 214.14119777 9 213 C14.68302723 219.90971776 21.04007484 226.10865023 27.40209961 232.3815918 C32.59955498 237.51278201 37.7144954 242.66029961 42.46411133 248.21459961 C44.85228345 250.99074056 47.37019898 253.64203308 49.875 256.3125 C54.37784403 261.15344393 58.66084105 266.11523552 62.80078125 271.2734375 C65.09441662 274.11705649 67.45017236 276.90077964 69.8125 279.6875 C96.89609249 312.15416677 123.29583385 350.43179941 130 393 C129.30648437 392.84144531 128.61296875 392.68289063 127.8984375 392.51953125 C111.80297017 389.63449465 96.53479896 394.35963878 83 403 C42.03539172 431.72299794 23.70712504 488.04329484 14.57177734 535.11914062 C14.04685918 537.76390337 13.46942176 540.38848859 12.86328125 543.015625 C8.0644893 564.22262753 6.70824062 586.1223429 6.25256348 607.81433105 C6.20948365 609.59256593 6.14989368 611.37048398 6.07312012 613.14758301 C5.37365118 622.89014227 5.37365118 622.89014227 8.98046875 631.52954102 C11.57150653 633.39059989 14.08907425 634.70504223 17 636 C18.45790674 636.85074857 19.90899616 637.71333501 21.3515625 638.58984375 C22.77214065 639.37945528 24.1967232 640.16190085 25.625 640.9375 C26.40149902 641.36224609 27.17799805 641.78699219 27.97802734 642.22460938 C30.31314417 643.49372563 32.6547285 644.74976336 35 646 C35.98613281 646.52811279 35.98613281 646.52811279 36.9921875 647.06689453 C56.41985135 657.38028351 77.10284915 665.23651354 98 672 C99.25200195 672.40943848 99.25200195 672.40943848 100.52929688 672.82714844 C111.92789965 676.49519523 123.49658105 679.03142728 135.25 681.25 C135.9076535 681.3750592 136.56530701 681.50011841 137.2428894 681.62896729 C153.56327993 684.70225942 169.57841541 686.4158144 186.1875 686.375 C187.39116211 686.37468277 187.39116211 686.37468277 188.61914062 686.37435913 C214.0804405 686.30768501 239.61766129 682.29208626 258.96875 664.16796875 C264.38771206 658.38426886 272 649.25299832 272 641 C326.34140258 672.09323211 348.3607008 764.30390249 363.703125 820.1796875 C364.21964074 822.07788285 364.73528087 823.97631669 365.25 825.875 C365.518125 826.86113281 365.78625 827.84726562 366.0625 828.86328125 C366.70913418 831.24197126 367.35496703 833.62087539 368 836 C369.97724691 832.47902608 370.93302429 828.89420008 371.9609375 825 C372.34695558 823.55916011 372.73362339 822.11849418 373.12084961 820.67797852 C373.32435028 819.91703888 373.52785095 819.15609924 373.73751831 818.37210083 C379.04028478 798.64024506 385.21920374 779.27024312 392 760 C392.23031921 759.34322266 392.46063843 758.68644531 392.69793701 758.00976562 C407.59014648 715.650653 428.05430767 670.57578689 463 641 C464.68372936 643.52559404 465.86770016 645.8236965 467.125 648.5625 C475.13106728 664.59797586 489.37106824 674.78880445 505.9765625 680.70410156 C510.25928066 682.07171045 514.58727996 683.15726171 519 684 C520.33635498 684.26598999 520.33635498 684.26598999 521.69970703 684.53735352 C530.52411712 686.10951853 539.1448707 686.27533506 548.07470703 686.20581055 C550.49652694 686.18752622 552.91796178 686.18530199 555.33984375 686.18554688 C569.74647914 686.15592631 583.59810823 684.96722685 597.75 682.25 C598.80315903 682.05074921 598.80315903 682.05074921 599.87759399 681.84747314 C609.72003602 679.97758979 619.38509685 677.86124539 628.90063477 674.68457031 C631.63274492 673.79367173 634.38290801 672.96712969 637.1328125 672.1328125 C686.97088061 657.25358142 686.97088061 657.25358142 730 629 C730.12683568 626.52708856 730.18832186 624.08384218 730.203125 621.609375 C730.21357849 620.46430984 730.21357849 620.46430984 730.22424316 619.29611206 C730.24186125 616.78068682 730.24798614 614.26548477 730.25 611.75 C730.25100708 610.8915448 730.25201416 610.0330896 730.25305176 609.14862061 C730.24047398 593.26992017 729.2114674 577.73988908 727 562 C726.85546387 560.96278809 726.71092773 559.92557617 726.56201172 558.85693359 C718.84482581 505.22975575 701.79400008 440.21336673 657.0546875 405.0703125 C653.44617213 402.62464351 649.75448847 400.54339032 645.875 398.5625 C645.23014648 398.23209717 644.58529297 397.90169434 643.92089844 397.5612793 C635.22826826 393.35910782 626.99806121 392.71049001 617.4375 392.875 C616.42880859 392.88402344 615.42011719 392.89304687 614.38085938 392.90234375 C611.92031543 392.92566644 609.46029104 392.95839237 607 393 C613.25888258 352.20745825 637.46245068 316.46448833 663 285 C663.74507812 284.07316406 664.49015625 283.14632813 665.2578125 282.19140625 C674.29821806 271.02861158 683.69481056 260.19970841 693.46850586 249.67529297 C694.62154462 248.41399024 695.76066732 247.13994458 696.89282227 245.85986328 C703.18838196 238.75729032 709.82808614 232.05594211 716.5625 225.375 C717.67797083 224.26456039 718.79320661 223.15388462 719.90820312 222.04296875 C722.60277631 219.35925841 725.30047673 216.67873064 728 214 C724.59960739 212.8665358 723.58022026 213.158445 720.203125 214.07421875 C719.25276367 214.32751953 718.30240234 214.58082031 717.32324219 214.84179688 C715.8019873 215.26041992 715.8019873 215.26041992 714.25 215.6875 C713.20231445 215.96787109 712.15462891 216.24824219 711.07519531 216.53710938 C706.74247931 217.69873123 702.41612258 218.88254932 698.09375 220.08203125 C680.47074297 224.92012313 662.61761957 228.88201498 644.5078125 231.35546875 C640.38857252 231.92097386 636.33000807 232.69636205 632.25 233.5 C595.03374851 240.34145559 549.69805507 243.43966273 514 229 C513.01 229 512.02 229 511 229 C511.44730469 228.40574219 511.89460938 227.81148437 512.35546875 227.19921875 C516.81336259 221.08743679 520.21456108 215.02991729 523 208 C523.32097656 207.24589844 523.64195312 206.49179688 523.97265625 205.71484375 C530.1291253 189.02079046 525.41238359 166.54811788 518.72265625 150.65234375 C503.92982824 118.74461154 483.12516975 93.16896304 458.5 68.3125 C457.63375 67.43311768 456.7675 66.55373535 455.875 65.64770508 C450.64481152 60.4111167 445.23224276 55.59386521 439.45556641 50.9675293 C437.50428634 49.40406081 435.59569099 47.81815574 433.71484375 46.171875 C416.94960776 31.55240058 398.30150277 18.79290736 378.6875 8.3125 C377.47719116 7.66051636 377.47719116 7.66051636 376.24243164 6.99536133 C375.10729126 6.40404419 375.10729126 6.40404419 373.94921875 5.80078125 C373.28237061 5.45184814 372.61552246 5.10291504 371.9284668 4.7434082 C368.00741029 3.23187294 365.33645033 4.08539333 361.8671875 5.984375 Z " fill="#FEFEFE" transform="translate(0,0)"/>
<path d="M0 0 C0.226875 1.051875 0.45375 2.10375 0.6875 3.1875 C5.12930696 20.52586373 13.4909078 33.33638631 28.8125 42.6875 C74.36584118 68.20422119 137.39729854 52.39491242 184.61352539 40.5690918 C187.06565575 39.98434337 189.52533195 39.47950997 192 39 C191.10698344 40.06486855 190.2104053 41.12675041 189.3125 42.1875 C188.81363281 42.77917969 188.31476563 43.37085938 187.80078125 43.98046875 C185.08242988 47.029032 182.16095003 49.86166483 179.24536133 52.72045898 C168.25946068 63.46847556 168.25946068 63.46847556 158.2578125 75.12109375 C156.53582404 77.31677799 154.78696686 79.4627958 152.9921875 81.59765625 C144.89811783 91.27152937 137.75632768 101.35388538 131 112 C130.36553955 112.98830811 130.36553955 112.98830811 129.71826172 113.99658203 C114.53738807 137.76559675 104.08251519 165.20703042 109.125 193.74609375 C112.12437805 204.90003086 119.19385461 217.46256974 129 224 C129 224.66 129 225.32 129 226 C72.90553803 247.69104393 10.95400807 237.76380536 -42.94067383 214.20678711 C-55.22596574 208.68251437 -67.11750304 202.33312244 -79 196 C-80.80473652 135.44106346 -64.58185157 68.55376284 -24 22 C-23.14664063 21.01257813 -22.29328125 20.02515625 -21.4140625 19.0078125 C-4.67304271 0 -4.67304271 0 0 0 Z " fill="#FDFDFD" transform="translate(461,217)"/>
<path d="M0 0 C4.56323921 2.88204582 8.50199417 6.06404287 12.4375 9.75 C13.01097168 10.28584717 13.58444336 10.82169434 14.17529297 11.3737793 C26.57734263 23.07665064 36.57476359 37.21438128 45 52 C45.57766113 53.00377686 45.57766113 53.00377686 46.16699219 54.02783203 C53.6330892 67.14530859 59.06793509 80.75638157 64 95 C64.26151855 95.7434668 64.52303711 96.48693359 64.79248047 97.25292969 C75.95123467 129.29659721 78.23817419 162.3734689 78 196 C58.91278831 207.11010681 39.19822975 216.42381172 18.18554688 223.27539062 C16.18815272 223.93761871 14.21067565 224.63706147 12.234375 225.359375 C-33.17589393 241.56303924 -83.84343574 243.14806238 -129 226 C-127.58298466 222.71772977 -125.88057051 220.77106229 -123.25 218.375 C-113.31755498 208.56828213 -107.79751841 194.81942587 -107.5625 180.875 C-107.85044617 173.83631596 -108.7376799 166.92657698 -110 160 C-110.15984375 159.0615625 -110.3196875 158.123125 -110.484375 157.15625 C-116.92879095 126.15338409 -139.59374429 96.77340918 -160.15405273 73.57958984 C-162.36301948 71.06163835 -163.92898164 69.21305509 -165 66 C-165.66 66 -166.32 66 -167 66 C-168.39477539 64.58398438 -168.39477539 64.58398438 -170.03515625 62.59375 C-174.25231373 57.63418911 -178.81233307 53.07671635 -183.4375 48.5 C-184.26443359 47.67757812 -185.09136719 46.85515625 -185.94335938 46.0078125 C-187.95994959 44.00287887 -189.97885236 42.00033747 -192 40 C-188.9983494 38.4991747 -187.10506555 39.60132708 -183.90234375 40.4765625 C-182.6393042 40.81534424 -181.37626465 41.15412598 -180.07495117 41.50317383 C-179.4012851 41.68635162 -178.72761902 41.86952942 -178.03353882 42.05825806 C-139.70299646 52.42234381 -94.37851552 61.85456292 -55 52 C-54.30406738 51.83371094 -53.60813477 51.66742188 -52.89111328 51.49609375 C-35.62129369 47.29627273 -19.78278442 40.01553631 -9.66796875 24.80859375 C-4.99499463 16.94004951 -1.53116478 9.0338722 0 0 Z " fill="#FDFDFD" transform="translate(276,217)"/>
<path d="M0 0 C2.2890625 1.14819336 2.2890625 1.14819336 4.625 2.58984375 C5.49020264 3.12198486 6.35540527 3.65412598 7.24682617 4.20239258 C8.15537354 4.77497803 9.0639209 5.34756348 10 5.9375 C10.93755127 6.52362061 11.87510254 7.10974121 12.84106445 7.71362305 C20.26276007 12.41106867 27.19460386 17.45201838 34 23 C34.84175781 23.66257812 35.68351563 24.32515625 36.55078125 25.0078125 C39.05471167 26.98060616 41.52898833 28.98616327 44 31 C44.92554688 31.73863281 45.85109375 32.47726562 46.8046875 33.23828125 C61.09508788 44.92877418 74.9617576 58.15993634 86 73 C86.88388705 74.15512205 87.76801912 75.31005665 88.65234375 76.46484375 C94.64547038 84.37879126 100.04604305 92.52526137 104.95019531 101.15576172 C105.6370491 102.36238812 106.3314402 103.56476283 107.03417969 104.76220703 C116.76311555 121.3665679 126.59872023 143.4667526 126 163 C125.44957031 162.855625 124.89914062 162.71125 124.33203125 162.5625 C104.85484748 158.21410548 86.93458755 160.47651409 70 171 C66.47591327 173.47543145 63.21208701 176.13341478 60 179 C59.26394531 179.65355469 58.52789062 180.30710937 57.76953125 180.98046875 C25.91349715 211.03226729 8.37733464 261.18522987 -0.50463867 302.78100586 C-1.80991718 308.80991718 -1.80991718 308.80991718 -4 311 C-4.15968262 310.3694873 -4.31936523 309.73897461 -4.48388672 309.08935547 C-7.92856281 295.61281568 -11.7239291 282.31655975 -16.125 269.125 C-16.53218262 267.89765137 -16.93936523 266.67030273 -17.35888672 265.40576172 C-26.29411325 238.96022831 -38.42799062 211.17730128 -57 190 C-58.04220703 188.76056641 -58.04220703 188.76056641 -59.10546875 187.49609375 C-66.66761103 178.72936243 -74.80341191 171.81681948 -85.125 166.5625 C-85.76961182 166.23233887 -86.41422363 165.90217773 -87.07836914 165.56201172 C-95.34296844 161.5651373 -103.33769816 160.67011878 -112.4375 160.75 C-113.75331055 160.73839844 -113.75331055 160.73839844 -115.09570312 160.7265625 C-121.27022016 160.74476299 -126.99516602 161.58253952 -133 163 C-133.21568988 157.04156708 -132.56673502 151.9900412 -131 146.25 C-130.77852295 145.43144531 -130.5570459 144.61289062 -130.32885742 143.76953125 C-122.33765676 115.41870391 -107.43105571 89.07918188 -88 67 C-87.22011719 66.11054688 -86.44023437 65.22109375 -85.63671875 64.3046875 C-74.01413543 51.35935191 -61.85617279 38.56402948 -48 28 C-47.07058594 27.25363281 -46.14117187 26.50726563 -45.18359375 25.73828125 C-38.42838773 20.38070406 -31.41527948 15.48212713 -24.25 10.6875 C-23.3748877 10.10073486 -22.49977539 9.51396973 -21.59814453 8.90942383 C-19.08274939 7.2436701 -16.55075448 5.61102924 -14 4 C-12.77893555 3.2258374 -12.77893555 3.2258374 -11.53320312 2.43603516 C-10.3643457 1.73486572 -10.3643457 1.73486572 -9.171875 1.01953125 C-8.48706055 0.60421143 -7.80224609 0.1888916 -7.09667969 -0.23901367 C-4.30929626 -1.25068975 -2.81267404 -0.87671995 0 0 Z " fill="#FEFEFE" transform="translate(372,438)"/>
<path d="M0 0 C7.85503893 3.58788918 13.60770092 10.4476047 19 17 C19.81210937 17.95132812 20.62421875 18.90265625 21.4609375 19.8828125 C34.11935089 35.04245084 43.05752071 52.59376762 50 71 C50.68642578 72.80210937 50.68642578 72.80210937 51.38671875 74.640625 C60.06223909 99.05249927 64.35292509 125.21512117 66 151 C66.04853119 151.68139038 66.09706238 152.36278076 66.14706421 153.06481934 C66.47175238 157.66472882 66.70234637 162.25798635 66.84448242 166.8671875 C66.90682275 168.46414696 66.99599939 170.06027009 67.11108398 171.65429688 C67.85107474 182.17956448 67.85107474 182.17956448 66 187 C62.43300152 190.78767783 58.66075916 192.8956106 53.97872925 195.07073975 C52.06126515 195.97122837 50.2205183 196.95042031 48.37133789 197.98291016 C45.40261308 199.63530181 42.40293094 201.21187434 39.37768555 202.75805664 C37.56070362 203.68841981 35.75191577 204.63345955 33.94335938 205.58007812 C25.49055431 209.96031537 16.88108608 213.57349688 8 217 C6.33157314 217.68321728 4.66445002 218.3696507 3 219.0625 C-7.67409676 223.28006994 -18.41820244 226.47481448 -29.5625 229.1875 C-30.57836182 229.43741699 -31.59422363 229.68733398 -32.64086914 229.94482422 C-46.29469928 233.18153049 -59.5422429 234.37318021 -73.52954102 234.37060547 C-76.16684251 234.37496585 -78.80244685 234.41138932 -81.43945312 234.44921875 C-97.65212038 234.55576235 -112.81659963 231.69756341 -128 226 C-128 223 -128 223 -126.71484375 221.5625 C-126.12832031 221.046875 -125.54179687 220.53125 -124.9375 220 C-114.48354304 209.90506782 -108.24898548 195.60329172 -107.796875 181.12890625 C-107.28150921 144.60030456 -123.72984921 113.16395251 -146 85 C-146.63035156 84.18917969 -147.26070313 83.37835938 -147.91015625 82.54296875 C-153.24514842 75.76194174 -158.87891595 69.23481392 -164.52587891 62.71362305 C-165.54073252 61.53388513 -166.54780299 60.34742169 -167.54833984 59.15551758 C-170.31688832 55.86781159 -173.08112977 52.84525243 -176.375 50.0625 C-177.06335938 49.47597656 -177.75171875 48.88945312 -178.4609375 48.28515625 C-178.96882813 47.86105469 -179.47671875 47.43695313 -180 47 C-179.67 46.34 -179.34 45.68 -179 45 C-178.27337158 45.19110352 -177.54674316 45.38220703 -176.7980957 45.57910156 C-130.61319812 57.58305805 -72.64507181 67.9059332 -28.90234375 42.91796875 C-24.11599818 39.75498669 -20.01958478 36.07815797 -16 32 C-15.42636719 31.43667969 -14.85273437 30.87335938 -14.26171875 30.29296875 C-6.42733928 21.97273629 -2.95832942 10.78920141 0 0 Z " fill="#FDFDFD" transform="translate(632,423)"/>
<path d="M0 0 C0.21914062 0.88300781 0.43828125 1.76601563 0.6640625 2.67578125 C3.53100561 13.52587895 7.55721101 22.46268322 15 31 C15 31.66 15 32.32 15 33 C16.485 33.495 16.485 33.495 18 34 C18 34.66 18 35.32 18 36 C18.55171875 36.26039063 19.1034375 36.52078125 19.671875 36.7890625 C22.315997 38.16436085 24.75607463 39.74326026 27.25 41.375 C65.86689796 66.01431534 118.60933245 58.36161981 160.99951172 49.36328125 C164.27766954 48.63130503 167.55184117 47.89224112 170.8112793 47.08056641 C174.09101578 46.28623941 175.72316122 45.90772041 179 47 C178.34366577 47.69391846 178.34366577 47.69391846 177.67407227 48.40185547 C173.4158942 52.90682766 169.16913689 57.42228446 164.93066406 61.94580078 C163.44891665 63.52235905 161.95708527 65.08944477 160.4609375 66.65234375 C139.57945937 88.94473256 119.56204934 118.48346147 111 148 C110.68546875 148.93070313 110.3709375 149.86140625 110.046875 150.8203125 C107.77712887 158.55808338 107.72169328 166.16721318 107.6875 174.1875 C107.67916138 175.84507324 107.67916138 175.84507324 107.6706543 177.53613281 C107.75619864 187.28965027 108.77647116 195.90153058 113.5625 204.5 C113.90748535 205.13583008 114.2524707 205.77166016 114.60791016 206.42675781 C117.50177488 211.5515527 121.001101 215.83039614 125.1171875 220.046875 C127 222 127 222 129 225 C120.06428692 229.2208896 110.62167936 231.0524162 101 233 C100.25041016 233.17869629 99.50082031 233.35739258 98.72851562 233.54150391 C95.23714298 234.12818947 91.79890322 234.16183892 88.26953125 234.16796875 C87.52626587 234.17229416 86.78300049 234.17661957 86.01721191 234.18107605 C83.61557598 234.19116788 81.21415285 234.19126205 78.8125 234.1875 C77.58374649 234.18559662 77.58374649 234.18559662 76.33016968 234.18365479 C31.78052317 234.05139674 -13.99459188 220.263365 -51.79321289 196.31884766 C-54.10412946 194.88543233 -54.10412946 194.88543233 -57.12670898 193.55224609 C-60.72867895 191.66374182 -63.26376805 190.0225976 -66 187 C-67.60050054 181.03816458 -67.28046134 175.36789411 -66.9375 169.25 C-66.88308218 167.53901876 -66.83258452 165.82790862 -66.78588867 164.11669922 C-66.62270651 159.07046723 -66.33335786 154.03755316 -66 149 C-65.95516479 148.29725952 -65.91032959 147.59451904 -65.86413574 146.8704834 C-62.42535256 94.35759919 -45.41695663 38.21315362 -4.9375 2.25 C-2 0 -2 0 0 0 Z " fill="#FDFDFD" transform="translate(105,423)"/>
<path d="M0 0 C2.74171589 1.26907776 5.36900369 2.70401375 8 4.1875 C9.16728638 4.84202148 9.16728638 4.84202148 10.3581543 5.50976562 C24.99845639 13.86985497 38.81759651 23.51017254 52 34 C55.74036574 36.81753292 55.74036574 36.81753292 59.48828125 39.625 C60.23658203 40.305625 60.23658203 40.305625 61 41 C61 41.66 61 42.32 61 43 C61.86818359 43.37705078 61.86818359 43.37705078 62.75390625 43.76171875 C65.28283677 45.15592914 66.9343046 46.73790358 68.9375 48.8125 C69.63875 49.53179687 70.34 50.25109375 71.0625 50.9921875 C71.701875 51.65476563 72.34125 52.31734375 73 53 C74.2065625 54.2065625 74.2065625 54.2065625 75.4375 55.4375 C76.283125 56.283125 77.12875 57.12875 78 58 C78.60972656 58.56332031 79.21945312 59.12664062 79.84765625 59.70703125 C100.00147905 78.83670335 115.46660181 105.27257171 123.5625 131.75 C123.81427002 132.57161621 124.06604004 133.39323242 124.32543945 134.23974609 C125.68409914 138.9850325 126.25720711 143.06689947 126 148 C125.36578125 147.855625 124.7315625 147.71125 124.078125 147.5625 C104.51745851 143.6719807 85.38135852 145.06899735 68.234375 155.78125 C63.39207262 159.10302265 59.1615196 162.87043065 55 167 C54.13375 167.825 53.2675 168.65 52.375 169.5 C51.59125 170.325 50.8075 171.15 50 172 C49.45472656 172.55042969 48.90945313 173.10085937 48.34765625 173.66796875 C20.99079595 202.59127504 7.1295843 244.36967195 -3 282 C-5.55333092 279.44666908 -5.67985215 277.71003504 -6.5 274.1875 C-16.94497156 232.79949614 -37.12759244 181.49904351 -74.125 156.69921875 C-77.54786224 154.67619555 -81.03469013 152.89220657 -84.625 151.1875 C-85.23424316 150.8972998 -85.84348633 150.60709961 -86.47119141 150.30810547 C-94.70026329 146.56159007 -101.90310809 145.66428862 -110.8125 145.75 C-111.7813916 145.75386719 -112.7502832 145.75773438 -113.74853516 145.76171875 C-120.31587647 145.84122919 -126.62793303 146.29265191 -133 148 C-133.22736979 142.69470484 -132.49206177 138.16225299 -130.9375 133.125 C-130.71271973 132.38813965 -130.48793945 131.6512793 -130.25634766 130.89208984 C-123.93982864 110.76219478 -114.26867458 92.43588081 -101 76 C-100.31808594 75.12730469 -99.63617188 74.25460938 -98.93359375 73.35546875 C-90.22535948 62.40201754 -80.35818094 50.30633326 -69 42 C-68.34 42 -67.68 42 -67 42 C-67 41.34 -67 40.68 -67 40 C-65.0596684 38.28414417 -63.1151724 36.69772706 -61.0625 35.125 C-60.43569336 34.6403125 -59.80888672 34.155625 -59.16308594 33.65625 C-45.98417339 23.5534964 -32.326997 14.39234109 -18 6 C-17.3488623 5.61344238 -16.69772461 5.22688477 -16.02685547 4.82861328 C-14.25742597 3.78465448 -12.47286295 2.76646932 -10.6875 1.75 C-9.20830078 0.90695313 -9.20830078 0.90695313 -7.69921875 0.046875 C-4.42090689 -1.22459762 -3.30106136 -1.16536731 0 0 Z " fill="#FEFEFE" transform="translate(372,42)"/>
<path d="M0 0 C-2.17424117 2.50037734 -3.73045798 3.43628586 -7 4 C-7 3.01 -7 2.02 -7 1 C-3.375 -1.125 -3.375 -1.125 0 0 Z M-10 3 C-9.34 3.33 -8.68 3.66 -8 4 C-8.99 4 -9.98 4 -11 4 C-10.67 3.67 -10.34 3.34 -10 3 Z " fill="#2C2C2C" transform="translate(93,400)"/>
<path d="M0 0 C0.66 0.66 1.32 1.32 2 2 C-0.38957269 5.24299151 -2.2047869 7.50902342 -6 9 C-4.47291037 5.56404834 -2.40072955 2.88087546 0 0 Z " fill="#EAEAEA" transform="translate(433,244)"/>
</svg>
